<svg width="200" height="82" viewBox="0 0 200 82" fill="none" xmlns="http://www.w3.org/2000/svg">
<mask id="mask0_4397_3092" style="mask-type:alpha" maskUnits="userSpaceOnUse" x="0" y="0" width="71" height="82">
<path d="M70.0359 20.4167L35.0179 -5.02163e-06L35.0181 23.9347C42.5419 19.5658 48.7972 16.024 48.9308 16.0577L58.1972 21.9786L35.0182 35.5536L35.0183 46.0991L49.1331 37.8015L49.2006 49.507L35.0184 57.7483L35.0186 81.6667L70.0363 61.25L70.0359 20.4167Z" fill="#C4C4C4"/>
<path d="M35.0186 81.6667L35.0184 57.7483L21.5026 65.6022L11.7981 59.7494L35.0183 46.0991L35.0182 35.5536L20.8959 43.8244L20.8958 32.1529L34.8122 24.0543L35.0181 23.9347L35.0179 -5.02163e-06L0.000163488 20.4167L0.000490463 61.2501L35.0186 81.6667Z" fill="#C4C4C4"/>
</mask>
<g mask="url(#mask0_4397_3092)">
<path fill-rule="evenodd" clip-rule="evenodd" d="M35.9644 0L71.9288 20.4167L71.9292 61.25L35.965 81.6667L35.9644 0Z" fill="#3D3D3D"/>
<path fill-rule="evenodd" clip-rule="evenodd" d="M35.9643 -6.76484e-06L0.000162575 20.4167L0.000487725 61.2501L35.965 81.6667L35.9643 -6.76484e-06Z" fill="#505050"/>
</g>
<path d="M103.075 24.0333C105.379 24.0333 107.299 24.8413 108.835 26.4573C110.387 28.0733 111.163 30.0653 111.163 32.4333C111.163 34.8013 110.387 36.7933 108.835 38.4093C107.299 40.0253 105.379 40.8333 103.075 40.8333H96.4028V24.0333H103.075ZM103.075 37.6653C104.531 37.6653 105.715 37.1853 106.627 36.2253C107.539 35.2493 107.995 33.9853 107.995 32.4333C107.995 30.8813 107.539 29.6253 106.627 28.6653C105.715 27.6893 104.531 27.2013 103.075 27.2013H99.7148V37.6653H103.075ZM122.728 40.8333L119.344 35.0013H116.824V40.8333H113.512V24.0333H120.232C121.784 24.0333 123.104 24.5773 124.192 25.6653C125.28 26.7533 125.824 28.0653 125.824 29.6013C125.824 30.6413 125.528 31.6093 124.936 32.5053C124.344 33.3853 123.56 34.0493 122.584 34.4973L126.304 40.8333H122.728ZM116.824 27.1293V32.0973H120.232C120.856 32.0973 121.392 31.8573 121.84 31.3773C122.288 30.8813 122.512 30.2893 122.512 29.6013C122.512 28.9133 122.288 28.3293 121.84 27.8493C121.392 27.3693 120.856 27.1293 120.232 27.1293H116.824ZM142.203 38.6493C140.507 40.3293 138.443 41.1693 136.011 41.1693C133.579 41.1693 131.515 40.3293 129.819 38.6493C128.139 36.9533 127.299 34.8813 127.299 32.4333C127.299 29.9853 128.139 27.9213 129.819 26.2413C131.515 24.5453 133.579 23.6973 136.011 23.6973C138.443 23.6973 140.507 24.5453 142.203 26.2413C143.899 27.9213 144.747 29.9853 144.747 32.4333C144.747 34.8813 143.899 36.9533 142.203 38.6493ZM132.147 36.3933C133.187 37.4173 134.475 37.9293 136.011 37.9293C137.547 37.9293 138.835 37.4173 139.875 36.3933C140.915 35.3533 141.435 34.0333 141.435 32.4333C141.435 30.8333 140.915 29.5133 139.875 28.4733C138.835 27.4333 137.547 26.9133 136.011 26.9133C134.475 26.9133 133.187 27.4333 132.147 28.4733C131.107 29.5133 130.587 30.8333 130.587 32.4333C130.587 34.0333 131.107 35.3533 132.147 36.3933ZM153.339 24.0333C154.955 24.0333 156.315 24.5773 157.419 25.6653C158.523 26.7533 159.075 28.0893 159.075 29.6733C159.075 31.2573 158.523 32.5933 157.419 33.6813C156.315 34.7693 154.955 35.3133 153.339 35.3133H150.387V40.8333H147.075V24.0333H153.339ZM153.339 32.2173C154.043 32.2173 154.627 31.9773 155.091 31.4973C155.555 31.0013 155.787 30.3933 155.787 29.6733C155.787 28.9373 155.555 28.3293 155.091 27.8493C154.627 27.3693 154.043 27.1293 153.339 27.1293H150.387V32.2173H153.339ZM164.543 37.6653H170.951V40.8333H161.231V24.0333H164.543V37.6653ZM176.144 37.6653H183.224V40.8333H172.832V24.0333H183.104V27.2013H176.144V30.7773H182.504V33.8973H176.144V37.6653ZM198.351 40.8333H194.583L191.319 35.3613L188.055 40.8333H184.311L189.447 32.2173L184.575 24.0333H188.319L191.319 29.0733L194.319 24.0333H198.063L193.191 32.1933L198.351 40.8333Z" fill="white" fill-opacity="0.5"/>
<path d="M96.0888 59.8333V49.9633H97.0968L101.059 58.9093H100.653L104.615 49.9633H105.623V59.8333H104.559V51.4613H104.979L101.241 59.8333H100.471L96.7188 51.4613H97.1388V59.8333H96.0888ZM107.686 59.8333V52.8053H108.82V59.8333H107.686ZM107.546 51.2093V49.9353H108.946V51.2093H107.546ZM110.742 59.8333V54.4293C110.742 54.1679 110.728 53.9019 110.7 53.6313C110.682 53.3513 110.658 53.0759 110.63 52.8053H111.722L111.862 54.3453H111.694C111.9 53.8039 112.226 53.3933 112.674 53.1133C113.132 52.8239 113.659 52.6793 114.256 52.6793C115.087 52.6793 115.712 52.9033 116.132 53.3513C116.562 53.7899 116.776 54.4853 116.776 55.4373V59.8333H115.642V55.5073C115.642 54.8446 115.507 54.3639 115.236 54.0653C114.975 53.7573 114.564 53.6033 114.004 53.6033C113.351 53.6033 112.833 53.8039 112.45 54.2053C112.068 54.6066 111.876 55.1433 111.876 55.8153V59.8333H110.742ZM121.787 59.9593C120.686 59.9593 119.818 59.6419 119.183 59.0073C118.549 58.3633 118.231 57.4719 118.231 56.3333C118.231 55.5959 118.371 54.9566 118.651 54.4153C118.931 53.8646 119.323 53.4399 119.827 53.1413C120.331 52.8333 120.91 52.6793 121.563 52.6793C122.207 52.6793 122.749 52.8146 123.187 53.0853C123.626 53.3559 123.962 53.7433 124.195 54.2473C124.429 54.7419 124.545 55.3299 124.545 56.0113V56.4313H119.099V55.7173H123.803L123.565 55.8993C123.565 55.1526 123.397 54.5693 123.061 54.1493C122.725 53.7293 122.226 53.5193 121.563 53.5193C120.863 53.5193 120.317 53.7666 119.925 54.2613C119.533 54.7466 119.337 55.4046 119.337 56.2353V56.3613C119.337 57.2386 119.552 57.9059 119.981 58.3633C120.42 58.8113 121.031 59.0353 121.815 59.0353C122.235 59.0353 122.627 58.9746 122.991 58.8533C123.365 58.7226 123.719 58.5126 124.055 58.2233L124.447 59.0213C124.139 59.3199 123.747 59.5533 123.271 59.7213C122.805 59.8799 122.31 59.9593 121.787 59.9593ZM128.955 59.9593C128.264 59.9593 127.662 59.8099 127.149 59.5113C126.645 59.2126 126.253 58.7879 125.973 58.2373C125.702 57.6866 125.567 57.0333 125.567 56.2773C125.567 55.5119 125.707 54.8633 125.987 54.3313C126.267 53.7899 126.659 53.3793 127.163 53.0993C127.676 52.8193 128.273 52.6793 128.955 52.6793C129.403 52.6793 129.837 52.7586 130.257 52.9173C130.686 53.0759 131.041 53.2999 131.321 53.5893L130.915 54.4013C130.635 54.1306 130.327 53.9299 129.991 53.7993C129.664 53.6686 129.342 53.6033 129.025 53.6033C128.297 53.6033 127.732 53.8319 127.331 54.2893C126.929 54.7466 126.729 55.4139 126.729 56.2913C126.729 57.1593 126.929 57.8313 127.331 58.3073C127.732 58.7833 128.297 59.0213 129.025 59.0213C129.333 59.0213 129.65 58.9606 129.977 58.8393C130.313 58.7179 130.625 58.5173 130.915 58.2373L131.321 59.0353C131.031 59.3339 130.672 59.5626 130.243 59.7213C129.813 59.8799 129.384 59.9593 128.955 59.9593ZM132.624 59.8333V54.4993C132.624 54.2193 132.615 53.9346 132.596 53.6453C132.587 53.3559 132.568 53.0759 132.54 52.8053H133.632L133.772 54.5133L133.576 54.5273C133.67 54.1073 133.833 53.7619 134.066 53.4913C134.3 53.2206 134.575 53.0199 134.892 52.8893C135.21 52.7493 135.541 52.6793 135.886 52.6793C136.026 52.6793 136.148 52.6839 136.25 52.6933C136.362 52.7026 136.465 52.7259 136.558 52.7633L136.544 53.7713C136.404 53.7246 136.274 53.6966 136.152 53.6873C136.04 53.6686 135.91 53.6593 135.76 53.6593C135.35 53.6593 134.99 53.7573 134.682 53.9533C134.384 54.1493 134.155 54.4013 133.996 54.7093C133.847 55.0173 133.772 55.3439 133.772 55.6893V59.8333H132.624ZM140.064 59.9593C139.439 59.9593 138.893 59.8146 138.426 59.5253C137.959 59.2266 137.595 58.8066 137.334 58.2653C137.082 57.7239 136.956 57.0753 136.956 56.3193C136.956 55.5539 137.082 54.9006 137.334 54.3593C137.595 53.8179 137.959 53.4026 138.426 53.1133C138.893 52.8239 139.439 52.6793 140.064 52.6793C140.699 52.6793 141.245 52.8426 141.702 53.1693C142.169 53.4866 142.477 53.9206 142.626 54.4713H142.458L142.612 52.8053H143.704C143.676 53.0759 143.648 53.3513 143.62 53.6313C143.601 53.9019 143.592 54.1679 143.592 54.4293V59.8333H142.458V58.1813H142.612C142.463 58.7319 142.155 59.1659 141.688 59.4833C141.221 59.8006 140.68 59.9593 140.064 59.9593ZM140.288 59.0353C140.96 59.0353 141.492 58.8066 141.884 58.3493C142.276 57.8826 142.472 57.2059 142.472 56.3193C142.472 55.4233 142.276 54.7466 141.884 54.2893C141.492 53.8226 140.96 53.5893 140.288 53.5893C139.625 53.5893 139.093 53.8226 138.692 54.2893C138.3 54.7466 138.104 55.4233 138.104 56.3193C138.104 57.2059 138.3 57.8826 138.692 58.3493C139.093 58.8066 139.625 59.0353 140.288 59.0353ZM145.868 59.8333V53.6873H144.496V52.8053H146.176L145.868 53.0993V51.9233C145.868 51.1299 146.069 50.5233 146.47 50.1033C146.872 49.6833 147.446 49.4733 148.192 49.4733C148.379 49.4733 148.57 49.4919 148.766 49.5293C148.972 49.5573 149.14 49.5993 149.27 49.6553V50.5933C149.158 50.5466 149.018 50.5093 148.85 50.4813C148.692 50.4439 148.528 50.4253 148.36 50.4253C148.071 50.4253 147.824 50.4859 147.618 50.6073C147.413 50.7193 147.259 50.8919 147.156 51.1253C147.054 51.3586 147.002 51.6573 147.002 52.0213V53.0433L146.82 52.8053H148.962V53.6873H147.002V59.8333H145.868ZM152.119 59.9593C151.428 59.9593 150.901 59.7633 150.537 59.3713C150.173 58.9699 149.991 58.3679 149.991 57.5653V53.6873H148.619V52.8053H149.991V50.8873L151.125 50.5653V52.8053H153.141V53.6873H151.125V57.4393C151.125 57.9993 151.218 58.4006 151.405 58.6433C151.601 58.8766 151.89 58.9933 152.273 58.9933C152.45 58.9933 152.609 58.9793 152.749 58.9513C152.889 58.9139 153.015 58.8719 153.127 58.8253V59.7773C152.996 59.8333 152.837 59.8753 152.651 59.9033C152.473 59.9406 152.296 59.9593 152.119 59.9593ZM157.738 59.8333V49.9633H161.756C162.792 49.9633 163.59 50.2153 164.15 50.7193C164.71 51.2139 164.99 51.9046 164.99 52.7913C164.99 53.6593 164.71 54.3499 164.15 54.8633C163.59 55.3673 162.792 55.6193 161.756 55.6193H158.9V59.8333H157.738ZM158.9 54.6533H161.644C162.362 54.6533 162.904 54.4899 163.268 54.1633C163.641 53.8366 163.828 53.3793 163.828 52.7913C163.828 52.1939 163.641 51.7319 163.268 51.4053C162.904 51.0786 162.362 50.9153 161.644 50.9153H158.9V54.6533ZM166.286 59.8333V54.4993C166.286 54.2193 166.277 53.9346 166.258 53.6453C166.249 53.3559 166.23 53.0759 166.202 52.8053H167.294L167.434 54.5133L167.238 54.5273C167.331 54.1073 167.495 53.7619 167.728 53.4913C167.961 53.2206 168.237 53.0199 168.554 52.8893C168.871 52.7493 169.203 52.6793 169.548 52.6793C169.688 52.6793 169.809 52.6839 169.912 52.6933C170.024 52.7026 170.127 52.7259 170.22 52.7633L170.206 53.7713C170.066 53.7246 169.935 53.6966 169.814 53.6873C169.702 53.6686 169.571 53.6593 169.422 53.6593C169.011 53.6593 168.652 53.7573 168.344 53.9533C168.045 54.1493 167.817 54.4013 167.658 54.7093C167.509 55.0173 167.434 55.3439 167.434 55.6893V59.8333H166.286ZM173.922 59.9593C173.25 59.9593 172.662 59.8146 172.158 59.5253C171.663 59.2266 171.281 58.8066 171.01 58.2653C170.739 57.7146 170.604 57.0659 170.604 56.3193C170.604 55.5633 170.739 54.9146 171.01 54.3733C171.281 53.8319 171.663 53.4166 172.158 53.1273C172.662 52.8286 173.25 52.6793 173.922 52.6793C174.603 52.6793 175.191 52.8286 175.686 53.1273C176.19 53.4166 176.577 53.8319 176.848 54.3733C177.128 54.9146 177.268 55.5633 177.268 56.3193C177.268 57.0659 177.128 57.7146 176.848 58.2653C176.577 58.8066 176.19 59.2266 175.686 59.5253C175.191 59.8146 174.603 59.9593 173.922 59.9593ZM173.922 59.0353C174.594 59.0353 175.126 58.8066 175.518 58.3493C175.91 57.8826 176.106 57.2059 176.106 56.3193C176.106 55.4233 175.905 54.7466 175.504 54.2893C175.112 53.8226 174.585 53.5893 173.922 53.5893C173.259 53.5893 172.732 53.8226 172.34 54.2893C171.948 54.7466 171.752 55.4233 171.752 56.3193C171.752 57.2059 171.948 57.8826 172.34 58.3493C172.732 58.8066 173.259 59.0353 173.922 59.0353ZM177.832 62.9133C177.701 62.9133 177.538 62.8946 177.342 62.8573C177.146 62.8293 176.983 62.7919 176.852 62.7453V61.7933C176.964 61.8306 177.095 61.8633 177.244 61.8913C177.393 61.9286 177.533 61.9473 177.664 61.9473C178.056 61.9473 178.345 61.8213 178.532 61.5693C178.728 61.3266 178.826 60.9253 178.826 60.3653V52.8053H179.96V60.4773C179.96 61.2799 179.783 61.8866 179.428 62.2973C179.083 62.7079 178.551 62.9133 177.832 62.9133ZM178.7 51.2093V49.9353H180.086V51.2093H178.7ZM184.934 59.9593C183.833 59.9593 182.965 59.6419 182.33 59.0073C181.695 58.3633 181.378 57.4719 181.378 56.3333C181.378 55.5959 181.518 54.9566 181.798 54.4153C182.078 53.8646 182.47 53.4399 182.974 53.1413C183.478 52.8333 184.057 52.6793 184.71 52.6793C185.354 52.6793 185.895 52.8146 186.334 53.0853C186.773 53.3559 187.109 53.7433 187.342 54.2473C187.575 54.7419 187.692 55.3299 187.692 56.0113V56.4313H182.246V55.7173H186.95L186.712 55.8993C186.712 55.1526 186.544 54.5693 186.208 54.1493C185.872 53.7293 185.373 53.5193 184.71 53.5193C184.01 53.5193 183.464 53.7666 183.072 54.2613C182.68 54.7466 182.484 55.4046 182.484 56.2353V56.3613C182.484 57.2386 182.699 57.9059 183.128 58.3633C183.567 58.8113 184.178 59.0353 184.962 59.0353C185.382 59.0353 185.774 58.9746 186.138 58.8533C186.511 58.7226 186.866 58.5126 187.202 58.2233L187.594 59.0213C187.286 59.3199 186.894 59.5533 186.418 59.7213C185.951 59.8799 185.457 59.9593 184.934 59.9593ZM192.101 59.9593C191.411 59.9593 190.809 59.8099 190.295 59.5113C189.791 59.2126 189.399 58.7879 189.119 58.2373C188.849 57.6866 188.713 57.0333 188.713 56.2773C188.713 55.5119 188.853 54.8633 189.133 54.3313C189.413 53.7899 189.805 53.3793 190.309 53.0993C190.823 52.8193 191.42 52.6793 192.101 52.6793C192.549 52.6793 192.983 52.7586 193.403 52.9173C193.833 53.0759 194.187 53.2999 194.467 53.5893L194.061 54.4013C193.781 54.1306 193.473 53.9299 193.137 53.7993C192.811 53.6686 192.489 53.6033 192.171 53.6033C191.443 53.6033 190.879 53.8319 190.477 54.2893C190.076 54.7466 189.875 55.4139 189.875 56.2913C189.875 57.1593 190.076 57.8313 190.477 58.3073C190.879 58.7833 191.443 59.0213 192.171 59.0213C192.479 59.0213 192.797 58.9606 193.123 58.8393C193.459 58.7179 193.772 58.5173 194.061 58.2373L194.467 59.0353C194.178 59.3339 193.819 59.5626 193.389 59.7213C192.96 59.8799 192.531 59.9593 192.101 59.9593ZM198.291 59.9593C197.6 59.9593 197.073 59.7633 196.709 59.3713C196.345 58.9699 196.163 58.3679 196.163 57.5653V53.6873H194.791V52.8053H196.163V50.8873L197.297 50.5653V52.8053H199.313V53.6873H197.297V57.4393C197.297 57.9993 197.39 58.4006 197.577 58.6433C197.773 58.8766 198.062 58.9933 198.445 58.9933C198.622 58.9933 198.781 58.9793 198.921 58.9513C199.061 58.9139 199.187 58.8719 199.299 58.8253V59.7773C199.168 59.8333 199.01 59.8753 198.823 59.9033C198.646 59.9406 198.468 59.9593 198.291 59.9593Z" fill="white" fill-opacity="0.25"/>
</svg>
