<svg width="130" height="42" viewBox="0 0 130 42" fill="none" xmlns="http://www.w3.org/2000/svg">
<mask id="mask0_4397_3103" style="mask-type:alpha" maskUnits="userSpaceOnUse" x="0" y="0" width="36" height="42">
<path d="M35.9997 10.5L17.9998 -2.58121e-06L17.9999 12.3093C21.8673 10.0624 25.0826 8.24091 25.1513 8.25825L29.9144 11.3032L18 18.2847L18 23.7081L25.2553 19.4407L25.29 25.4607L18.0001 29.6991L18.0002 42L35.9999 31.5L35.9997 10.5Z" fill="#C4C4C4"/>
<path d="M18.0002 42L18.0001 29.6991L11.0527 33.7382L6.06446 30.7282L18 23.7081L18 18.2847L10.7409 22.5383L10.7408 16.5357L17.8941 12.3708L17.9999 12.3093L17.9998 -2.58121e-06L8.40793e-05 10.5L0.000252238 31.5L18.0002 42Z" fill="#C4C4C4"/>
</mask>
<g mask="url(#mask0_4397_3103)">
<path fill-rule="evenodd" clip-rule="evenodd" d="M18.4863 0L36.9727 10.5L36.9729 31.5L18.4867 42L18.4863 0Z" fill="url(#paint0_linear_4397_3103)"/>
<path fill-rule="evenodd" clip-rule="evenodd" d="M18.4863 -3.47725e-06L8.361e-05 10.5L0.00025083 31.5L18.4866 42L18.4863 -3.47725e-06Z" fill="url(#paint1_linear_4397_3103)"/>
</g>
<path d="M57.174 8.4C58.902 8.4 60.342 9.006 61.494 10.218C62.658 11.43 63.24 12.924 63.24 14.7C63.24 16.476 62.658 17.97 61.494 19.182C60.342 20.394 58.902 21 57.174 21H52.17V8.4H57.174ZM57.174 18.624C58.266 18.624 59.154 18.264 59.838 17.544C60.522 16.812 60.864 15.864 60.864 14.7C60.864 13.536 60.522 12.594 59.838 11.874C59.154 11.142 58.266 10.776 57.174 10.776H54.654V18.624H57.174ZM67.216 13.548C67.432 12.972 67.786 12.54 68.278 12.252C68.782 11.964 69.34 11.82 69.952 11.82V14.412C69.244 14.328 68.608 14.472 68.044 14.844C67.492 15.216 67.216 15.834 67.216 16.698V21H64.894V12H67.216V13.548ZM78.6441 19.884C77.7201 20.796 76.5921 21.252 75.2601 21.252C73.9281 21.252 72.8001 20.796 71.8761 19.884C70.9641 18.96 70.5081 17.832 70.5081 16.5C70.5081 15.168 70.9641 14.046 71.8761 13.134C72.8001 12.21 73.9281 11.748 75.2601 11.748C76.5921 11.748 77.7201 12.21 78.6441 13.134C79.5681 14.046 80.0301 15.168 80.0301 16.5C80.0301 17.832 79.5681 18.96 78.6441 19.884ZM73.5141 18.282C73.9821 18.75 74.5641 18.984 75.2601 18.984C75.9561 18.984 76.5381 18.75 77.0061 18.282C77.4741 17.814 77.7081 17.22 77.7081 16.5C77.7081 15.78 77.4741 15.186 77.0061 14.718C76.5381 14.25 75.9561 14.016 75.2601 14.016C74.5641 14.016 73.9821 14.25 73.5141 14.718C73.0581 15.186 72.8301 15.78 72.8301 16.5C72.8301 17.22 73.0581 17.814 73.5141 18.282ZM86.9016 11.748C88.1136 11.748 89.1456 12.21 89.9976 13.134C90.8616 14.046 91.2936 15.168 91.2936 16.5C91.2936 17.832 90.8616 18.96 89.9976 19.884C89.1456 20.796 88.1136 21.252 86.9016 21.252C85.6416 21.252 84.6696 20.814 83.9856 19.938V24.6H81.6636V12H83.9856V13.062C84.6696 12.186 85.6416 11.748 86.9016 11.748ZM84.6876 18.336C85.1556 18.804 85.7496 19.038 86.4696 19.038C87.1896 19.038 87.7836 18.804 88.2516 18.336C88.7316 17.856 88.9716 17.244 88.9716 16.5C88.9716 15.756 88.7316 15.15 88.2516 14.682C87.7836 14.202 87.1896 13.962 86.4696 13.962C85.7496 13.962 85.1556 14.202 84.6876 14.682C84.2196 15.15 83.9856 15.756 83.9856 16.5C83.9856 17.244 84.2196 17.856 84.6876 18.336ZM92.9311 21V7.86H95.2531V21H92.9311ZM99.3404 17.454C99.6524 18.582 100.498 19.146 101.878 19.146C102.766 19.146 103.438 18.846 103.894 18.246L105.766 19.326C104.878 20.61 103.57 21.252 101.842 21.252C100.354 21.252 99.1604 20.802 98.2604 19.902C97.3604 19.002 96.9104 17.868 96.9104 16.5C96.9104 15.144 97.3544 14.016 98.2424 13.116C99.1304 12.204 100.27 11.748 101.662 11.748C102.982 11.748 104.068 12.204 104.92 13.116C105.784 14.028 106.216 15.156 106.216 16.5C106.216 16.8 106.186 17.118 106.126 17.454H99.3404ZM99.3044 15.654H103.894C103.762 15.042 103.486 14.586 103.066 14.286C102.658 13.986 102.19 13.836 101.662 13.836C101.038 13.836 100.522 13.998 100.114 14.322C99.7064 14.634 99.4364 15.078 99.3044 15.654ZM115.626 21H112.944L111 18.264L109.038 21H106.356L109.65 16.41L106.5 12H109.182L111 14.538L112.818 12H115.482L112.332 16.392L115.626 21Z" fill="white"/>
<path d="M51.89 36V28.95H52.61L55.44 35.34H55.15L57.98 28.95H58.7V36H57.94V30.02H58.24L55.57 36H55.02L52.34 30.02H52.64V36H51.89ZM60.374 36V30.98H61.184V36H60.374ZM60.274 29.84V28.93H61.274V29.84H60.274ZM62.7568 36V32.14C62.7568 31.9533 62.7468 31.7633 62.7268 31.57C62.7135 31.37 62.6968 31.1733 62.6768 30.98H63.4568L63.5568 32.08H63.4368C63.5835 31.6933 63.8168 31.4 64.1368 31.2C64.4635 30.9933 64.8401 30.89 65.2668 30.89C65.8601 30.89 66.3068 31.05 66.6068 31.37C66.9135 31.6833 67.0668 32.18 67.0668 32.86V36H66.2568V32.91C66.2568 32.4367 66.1601 32.0933 65.9668 31.88C65.7801 31.66 65.4868 31.55 65.0868 31.55C64.6201 31.55 64.2501 31.6933 63.9768 31.98C63.7035 32.2667 63.5668 32.65 63.5668 33.13V36H62.7568ZM70.8462 36.09C70.0595 36.09 69.4395 35.8633 68.9862 35.41C68.5328 34.95 68.3062 34.3133 68.3062 33.5C68.3062 32.9733 68.4062 32.5167 68.6062 32.13C68.8062 31.7367 69.0862 31.4333 69.4462 31.22C69.8062 31 70.2195 30.89 70.6862 30.89C71.1462 30.89 71.5328 30.9867 71.8462 31.18C72.1595 31.3733 72.3995 31.65 72.5662 32.01C72.7328 32.3633 72.8162 32.7833 72.8162 33.27V33.57H68.9262V33.06H72.2862L72.1162 33.19C72.1162 32.6567 71.9962 32.24 71.7562 31.94C71.5162 31.64 71.1595 31.49 70.6862 31.49C70.1862 31.49 69.7962 31.6667 69.5162 32.02C69.2362 32.3667 69.0962 32.8367 69.0962 33.43V33.52C69.0962 34.1467 69.2495 34.6233 69.5562 34.95C69.8695 35.27 70.3062 35.43 70.8662 35.43C71.1662 35.43 71.4462 35.3867 71.7062 35.3C71.9728 35.2067 72.2262 35.0567 72.4662 34.85L72.7462 35.42C72.5262 35.6333 72.2462 35.8 71.9062 35.92C71.5728 36.0333 71.2195 36.09 70.8462 36.09ZM76.1656 36.09C75.6723 36.09 75.2423 35.9833 74.8756 35.77C74.5156 35.5567 74.2356 35.2533 74.0356 34.86C73.8423 34.4667 73.7456 34 73.7456 33.46C73.7456 32.9133 73.8456 32.45 74.0456 32.07C74.2456 31.6833 74.5256 31.39 74.8856 31.19C75.2523 30.99 75.679 30.89 76.1656 30.89C76.4856 30.89 76.7956 30.9467 77.0956 31.06C77.4023 31.1733 77.6556 31.3333 77.8556 31.54L77.5656 32.12C77.3656 31.9267 77.1456 31.7833 76.9056 31.69C76.6723 31.5967 76.4423 31.55 76.2156 31.55C75.6956 31.55 75.2923 31.7133 75.0056 32.04C74.719 32.3667 74.5756 32.8433 74.5756 33.47C74.5756 34.09 74.719 34.57 75.0056 34.91C75.2923 35.25 75.6956 35.42 76.2156 35.42C76.4356 35.42 76.6623 35.3767 76.8956 35.29C77.1356 35.2033 77.359 35.06 77.5656 34.86L77.8556 35.43C77.649 35.6433 77.3923 35.8067 77.0856 35.92C76.779 36.0333 76.4723 36.09 76.1656 36.09ZM78.9868 36V32.19C78.9868 31.99 78.9801 31.7867 78.9668 31.58C78.9601 31.3733 78.9468 31.1733 78.9268 30.98H79.7068L79.8068 32.2L79.6668 32.21C79.7335 31.91 79.8501 31.6633 80.0168 31.47C80.1835 31.2767 80.3801 31.1333 80.6068 31.04C80.8335 30.94 81.0701 30.89 81.3168 30.89C81.4168 30.89 81.5035 30.8933 81.5768 30.9C81.6568 30.9067 81.7301 30.9233 81.7968 30.95L81.7868 31.67C81.6868 31.6367 81.5935 31.6167 81.5068 31.61C81.4268 31.5967 81.3335 31.59 81.2268 31.59C80.9335 31.59 80.6768 31.66 80.4568 31.8C80.2435 31.94 80.0801 32.12 79.9668 32.34C79.8601 32.56 79.8068 32.7933 79.8068 33.04V36H78.9868ZM84.5008 36.09C84.0541 36.09 83.6641 35.9867 83.3308 35.78C82.9974 35.5667 82.7374 35.2667 82.5508 34.88C82.3708 34.4933 82.2808 34.03 82.2808 33.49C82.2808 32.9433 82.3708 32.4767 82.5508 32.09C82.7374 31.7033 82.9974 31.4067 83.3308 31.2C83.6641 30.9933 84.0541 30.89 84.5008 30.89C84.9541 30.89 85.3441 31.0067 85.6708 31.24C86.0041 31.4667 86.2241 31.7767 86.3308 32.17H86.2108L86.3208 30.98H87.1008C87.0808 31.1733 87.0608 31.37 87.0408 31.57C87.0274 31.7633 87.0208 31.9533 87.0208 32.14V36H86.2108V34.82H86.3208C86.2141 35.2133 85.9941 35.5233 85.6608 35.75C85.3274 35.9767 84.9408 36.09 84.5008 36.09ZM84.6608 35.43C85.1408 35.43 85.5208 35.2667 85.8008 34.94C86.0808 34.6067 86.2208 34.1233 86.2208 33.49C86.2208 32.85 86.0808 32.3667 85.8008 32.04C85.5208 31.7067 85.1408 31.54 84.6608 31.54C84.1874 31.54 83.8074 31.7067 83.5208 32.04C83.2408 32.3667 83.1008 32.85 83.1008 33.49C83.1008 34.1233 83.2408 34.6067 83.5208 34.94C83.8074 35.2667 84.1874 35.43 84.6608 35.43ZM88.8469 36V31.61H87.8669V30.98H89.0669L88.8469 31.19V30.35C88.8469 29.7833 88.9902 29.35 89.2769 29.05C89.5635 28.75 89.9735 28.6 90.5069 28.6C90.6402 28.6 90.7769 28.6133 90.9169 28.64C91.0635 28.66 91.1835 28.69 91.2769 28.73V29.4C91.1969 29.3667 91.0969 29.34 90.9769 29.32C90.8635 29.2933 90.7469 29.28 90.6269 29.28C90.4202 29.28 90.2435 29.3233 90.0969 29.41C89.9502 29.49 89.8402 29.6133 89.7669 29.78C89.6935 29.9467 89.6569 30.16 89.6569 30.42V31.15L89.5269 30.98H91.0569V31.61H89.6569V36H88.8469ZM93.5114 36.09C93.0181 36.09 92.6414 35.95 92.3814 35.67C92.1214 35.3833 91.9914 34.9533 91.9914 34.38V31.61H91.0114V30.98H91.9914V29.61L92.8014 29.38V30.98H94.2414V31.61H92.8014V34.29C92.8014 34.69 92.8681 34.9767 93.0014 35.15C93.1414 35.3167 93.3481 35.4 93.6214 35.4C93.7481 35.4 93.8614 35.39 93.9614 35.37C94.0614 35.3433 94.1514 35.3133 94.2314 35.28V35.96C94.1381 36 94.0247 36.03 93.8914 36.05C93.7647 36.0767 93.6381 36.09 93.5114 36.09ZM97.8349 38.16V32.14C97.8349 31.9533 97.8249 31.7633 97.8049 31.57C97.7916 31.37 97.7749 31.1733 97.7549 30.98H98.5349L98.6449 32.17H98.5249C98.6316 31.7767 98.8483 31.4667 99.1749 31.24C99.5016 31.0067 99.8916 30.89 100.345 30.89C100.798 30.89 101.188 30.9933 101.515 31.2C101.848 31.4067 102.108 31.7033 102.295 32.09C102.482 32.4767 102.575 32.9433 102.575 33.49C102.575 34.03 102.482 34.4933 102.295 34.88C102.115 35.2667 101.858 35.5667 101.525 35.78C101.192 35.9867 100.798 36.09 100.345 36.09C99.8983 36.09 99.5116 35.9767 99.1849 35.75C98.8583 35.5233 98.6416 35.2133 98.5349 34.82H98.6449V38.16H97.8349ZM100.185 35.43C100.665 35.43 101.045 35.2667 101.325 34.94C101.612 34.6067 101.755 34.1233 101.755 33.49C101.755 32.85 101.612 32.3667 101.325 32.04C101.045 31.7067 100.665 31.54 100.185 31.54C99.7116 31.54 99.3316 31.7067 99.0449 32.04C98.7649 32.3667 98.6249 32.85 98.6249 33.49C98.6249 34.1233 98.7649 34.6067 99.0449 34.94C99.3316 35.2667 99.7116 35.43 100.185 35.43ZM103.811 36V32.19C103.811 31.99 103.804 31.7867 103.791 31.58C103.784 31.3733 103.771 31.1733 103.751 30.98H104.531L104.631 32.2L104.491 32.21C104.558 31.91 104.674 31.6633 104.841 31.47C105.008 31.2767 105.204 31.1333 105.431 31.04C105.658 30.94 105.894 30.89 106.141 30.89C106.241 30.89 106.328 30.8933 106.401 30.9C106.481 30.9067 106.554 30.9233 106.621 30.95L106.611 31.67C106.511 31.6367 106.418 31.6167 106.331 31.61C106.251 31.5967 106.158 31.59 106.051 31.59C105.758 31.59 105.501 31.66 105.281 31.8C105.068 31.94 104.904 32.12 104.791 32.34C104.684 32.56 104.631 32.7933 104.631 33.04V36H103.811ZM109.465 36.09C108.985 36.09 108.565 35.9867 108.205 35.78C107.852 35.5667 107.579 35.2667 107.385 34.88C107.192 34.4867 107.095 34.0233 107.095 33.49C107.095 32.95 107.192 32.4867 107.385 32.1C107.579 31.7133 107.852 31.4167 108.205 31.21C108.565 30.9967 108.985 30.89 109.465 30.89C109.952 30.89 110.372 30.9967 110.725 31.21C111.085 31.4167 111.362 31.7133 111.555 32.1C111.755 32.4867 111.855 32.95 111.855 33.49C111.855 34.0233 111.755 34.4867 111.555 34.88C111.362 35.2667 111.085 35.5667 110.725 35.78C110.372 35.9867 109.952 36.09 109.465 36.09ZM109.465 35.43C109.945 35.43 110.325 35.2667 110.605 34.94C110.885 34.6067 111.025 34.1233 111.025 33.49C111.025 32.85 110.882 32.3667 110.595 32.04C110.315 31.7067 109.939 31.54 109.465 31.54C108.992 31.54 108.615 31.7067 108.335 32.04C108.055 32.3667 107.915 32.85 107.915 33.49C107.915 34.1233 108.055 34.6067 108.335 34.94C108.615 35.2667 108.992 35.43 109.465 35.43ZM112.458 38.2C112.365 38.2 112.248 38.1867 112.108 38.16C111.968 38.14 111.851 38.1133 111.758 38.08V37.4C111.838 37.4267 111.931 37.45 112.038 37.47C112.145 37.4967 112.245 37.51 112.338 37.51C112.618 37.51 112.825 37.42 112.958 37.24C113.098 37.0667 113.168 36.78 113.168 36.38V30.98H113.978V36.46C113.978 37.0333 113.851 37.4667 113.598 37.76C113.351 38.0533 112.971 38.2 112.458 38.2ZM113.078 29.84V28.93H114.068V29.84H113.078ZM117.731 36.09C116.944 36.09 116.324 35.8633 115.871 35.41C115.418 34.95 115.191 34.3133 115.191 33.5C115.191 32.9733 115.291 32.5167 115.491 32.13C115.691 31.7367 115.971 31.4333 116.331 31.22C116.691 31 117.104 30.89 117.571 30.89C118.031 30.89 118.418 30.9867 118.731 31.18C119.044 31.3733 119.284 31.65 119.451 32.01C119.618 32.3633 119.701 32.7833 119.701 33.27V33.57H115.811V33.06H119.171L119.001 33.19C119.001 32.6567 118.881 32.24 118.641 31.94C118.401 31.64 118.044 31.49 117.571 31.49C117.071 31.49 116.681 31.6667 116.401 32.02C116.121 32.3667 115.981 32.8367 115.981 33.43V33.52C115.981 34.1467 116.134 34.6233 116.441 34.95C116.754 35.27 117.191 35.43 117.751 35.43C118.051 35.43 118.331 35.3867 118.591 35.3C118.858 35.2067 119.111 35.0567 119.351 34.85L119.631 35.42C119.411 35.6333 119.131 35.8 118.791 35.92C118.458 36.0333 118.104 36.09 117.731 36.09ZM123.05 36.09C122.557 36.09 122.127 35.9833 121.76 35.77C121.4 35.5567 121.12 35.2533 120.92 34.86C120.727 34.4667 120.63 34 120.63 33.46C120.63 32.9133 120.73 32.45 120.93 32.07C121.13 31.6833 121.41 31.39 121.77 31.19C122.137 30.99 122.564 30.89 123.05 30.89C123.37 30.89 123.68 30.9467 123.98 31.06C124.287 31.1733 124.54 31.3333 124.74 31.54L124.45 32.12C124.25 31.9267 124.03 31.7833 123.79 31.69C123.557 31.5967 123.327 31.55 123.1 31.55C122.58 31.55 122.177 31.7133 121.89 32.04C121.604 32.3667 121.46 32.8433 121.46 33.47C121.46 34.09 121.604 34.57 121.89 34.91C122.177 35.25 122.58 35.42 123.1 35.42C123.32 35.42 123.547 35.3767 123.78 35.29C124.02 35.2033 124.244 35.06 124.45 34.86L124.74 35.43C124.534 35.6433 124.277 35.8067 123.97 35.92C123.664 36.0333 123.357 36.09 123.05 36.09ZM127.672 36.09C127.178 36.09 126.802 35.95 126.542 35.67C126.282 35.3833 126.152 34.9533 126.152 34.38V31.61H125.172V30.98H126.152V29.61L126.962 29.38V30.98H128.402V31.61H126.962V34.29C126.962 34.69 127.028 34.9767 127.162 35.15C127.302 35.3167 127.508 35.4 127.782 35.4C127.908 35.4 128.022 35.39 128.122 35.37C128.222 35.3433 128.312 35.3133 128.392 35.28V35.96C128.298 36 128.185 36.03 128.052 36.05C127.925 36.0767 127.798 36.09 127.672 36.09Z" fill="white" fill-opacity="0.5"/>
<path d="M121.672 8.4V9.408H120.682V12H119.584V9.408H118.594V8.4H121.672ZM124.894 8.4H125.938V12H124.894V10.038L124.03 11.352H123.94L123.076 10.038V12H122.032V8.4H123.076L123.994 9.786L124.894 8.4Z" fill="white"/>
<defs>
<linearGradient id="paint0_linear_4397_3103" x1="27.7294" y1="-1.75576e-06" x2="27.7294" y2="42" gradientUnits="userSpaceOnUse">
<stop stop-color="#51001D"/>
<stop offset="1" stop-color="#A00027"/>
</linearGradient>
<linearGradient id="paint1_linear_4397_3103" x1="9.24308" y1="-1.73861e-06" x2="9.24308" y2="42" gradientUnits="userSpaceOnUse">
<stop stop-color="white"/>
<stop offset="1" stop-color="#464545"/>
</linearGradient>
</defs>
</svg>
