<svg width="202" height="197" viewBox="0 0 202 197" fill="none" xmlns="http://www.w3.org/2000/svg">
<g clip-path="url(#clip0_4399_3088)">
<path d="M172.155 2.05231H27.1053C13.2859 2.05231 2.08301 13.0777 2.08301 26.6783V376.932C2.08301 390.533 13.2859 401.558 27.1053 401.558H172.155C185.975 401.558 197.177 390.533 197.177 376.932V26.6783C197.177 13.0777 185.975 2.05231 172.155 2.05231Z" fill="#161621"/>
<path d="M172.547 2.56521C175.707 2.56516 178.836 3.17982 181.754 4.37384C184.671 5.56786 187.32 7.31771 189.549 9.52275C191.778 11.7278 193.541 14.3446 194.739 17.2227C195.936 20.1008 196.543 23.1834 196.526 26.2934V377.471C196.526 380.57 195.906 383.639 194.701 386.502C193.496 389.366 191.73 391.967 189.503 394.158C187.277 396.35 184.633 398.088 181.723 399.274C178.814 400.46 175.696 401.071 172.547 401.071H26.5849C20.2131 401.071 14.1004 398.589 9.58235 394.166C5.06496 389.744 2.50922 383.742 2.47472 377.471V26.2934C2.47472 20.0003 5.01477 13.965 9.53656 9.51503C14.0577 5.06514 20.1905 2.56521 26.5849 2.56521H172.547ZM172.547 1.88868e-09H26.5849C19.4992 1.88869e-09 12.704 2.77019 7.69347 7.70117C2.683 12.6321 -0.131836 19.32 -0.131836 26.2934V377.471C-0.131836 380.917 0.56011 384.33 1.90448 387.513C3.24884 390.696 5.21866 393.586 7.701 396.018C10.184 398.449 13.1299 400.373 16.3707 401.681C19.6115 402.988 23.0825 403.653 26.5849 403.636H172.547C179.598 403.636 186.36 400.879 191.346 395.973C196.332 391.065 199.133 384.41 199.133 377.471V26.2934C199.15 22.8466 198.475 19.4304 197.147 16.241C195.818 13.0517 193.863 10.1521 191.392 7.70889C188.922 5.26563 185.985 3.32684 182.751 2.0039C179.517 0.680968 176.049 -4.14112e-05 172.547 1.88868e-09Z" fill="#4F5056"/>
<path d="M190.01 27.7043V376.06C190.01 380.584 188.184 384.923 184.933 388.122C181.683 391.321 177.274 393.119 172.677 393.119H26.4543C21.8453 393.119 17.4233 391.326 14.1518 388.13C10.8802 384.934 9.02523 380.596 8.99072 376.06V27.7043C8.99072 23.146 10.8307 18.7745 14.106 15.5513C17.3806 12.3281 21.8227 10.5174 26.4543 10.5174H51.0858C52.1121 10.5494 53.0876 10.9651 53.814 11.6799C54.5405 12.3947 54.9627 13.3549 54.9953 14.3652V16.1608C54.9777 17.0474 55.1402 17.9285 55.4733 18.7526C55.8058 19.5766 56.3026 20.3271 56.9331 20.9601C57.5642 21.593 58.3176 22.0958 59.1482 22.439C59.9788 22.7821 60.8709 22.9588 61.7717 22.9586H137.229C139.061 22.9586 140.818 22.2425 142.113 20.9676C143.409 19.6928 144.136 17.9637 144.136 16.1608V14.3652C144.169 13.3549 144.591 12.3947 145.318 11.6799C146.044 10.9651 147.019 10.5494 148.046 10.5174H172.677C174.964 10.5173 177.229 10.9627 179.341 11.828C181.452 12.6934 183.369 13.9613 184.98 15.559C186.591 17.1567 187.865 19.0524 188.728 21.1368C189.592 23.2213 190.027 25.4533 190.01 27.7043Z" fill="#303030"/>
<path d="M110.122 12.9543H89.0097C88.0016 12.9543 87.1848 13.7324 87.1848 14.6922C87.1848 15.6521 88.0016 16.4302 89.0097 16.4302H110.122C111.129 16.4302 111.947 15.6521 111.947 14.6922C111.947 13.7324 111.129 12.9543 110.122 12.9543Z" fill="black"/>
<path d="M118.463 17.7C120.19 17.7 121.591 16.3218 121.591 14.6217C121.591 12.9216 120.19 11.5435 118.463 11.5435C116.735 11.5435 115.335 12.9216 115.335 14.6217C115.335 16.3218 116.735 17.7 118.463 17.7Z" fill="black"/>
<path d="M118.5 17C119.88 17 121 15.8807 121 14.5C121 13.1193 119.88 12 118.5 12C117.119 12 116 13.1193 116 14.5C116 15.8807 117.119 17 118.5 17Z" fill="#101010"/>
<path d="M199.915 130.313H199.133V81.189H199.915C200.468 81.189 200.998 81.4051 201.389 81.7899C201.78 82.1746 202 82.6965 202 83.2412V128.132C202.001 128.689 201.785 129.225 201.398 129.63C201.01 130.035 200.479 130.28 199.915 130.313Z" fill="#4F5056"/>
<g clip-path="url(#clip1_4399_3088)">
<path d="M72.5 81.5H82V91H72.5V81.5Z" fill="white"/>
<path d="M91.5 72V100.5H63V72H91.5ZM86.75 76.75H67.75V95.75H86.75V76.75ZM82 129H72.5V138.5H82V129Z" fill="white"/>
<path d="M91.5 119.5V148H63V119.5H91.5ZM67.75 124.25V143.25H86.75V124.25H67.75ZM120 81.5H129.5V91H120V81.5Z" fill="white"/>
<path d="M110.5 72V100.5H139V72H110.5ZM134.25 76.75V95.75H115.25V76.75H134.25ZM101 76.75V72H105.75V81.5H101V91H96.25V76.75H101ZM101 100.5V91H105.75V100.5H101ZM91.5 110V105.25H96.25V100.5H101V110H105.75V105.25H129.5V110H110.5V114.75H96.25V110H91.5ZM91.5 110V114.75H72.5V110H67.75V114.75H63V105.25H77.25V110H91.5ZM139 114.75H134.25V105.25H139V114.75ZM134.25 114.75H129.5V124.25H139V119.5H134.25V114.75ZM115.25 114.75H124.75V119.5H120V124.25H115.25V114.75ZM124.75 129V124.25H120V129H115.25V133.75H105.75V138.5H120V129H124.75ZM124.75 129H139V133.75H129.5V138.5H124.75V129ZM105.75 124.25V129H110.5V119.5H96.25V124.25H105.75Z" fill="white"/>
<path d="M96.25 129H101V143.25H120V148H96.25V129ZM139 138.5V148H124.75V143.25H134.25V138.5H139Z" fill="white"/>
</g>
<circle cx="139.5" cy="71.5" r="20.5" fill="#303030"/>
<path d="M149.753 61.2469C152.125 63.619 153.601 66.7402 153.93 70.0787C154.259 73.4172 153.42 76.7665 151.556 79.5558C149.693 82.3451 146.919 84.4018 143.709 85.3756C140.499 86.3494 137.05 86.18 133.951 84.8962C130.852 83.6125 128.294 81.2938 126.712 78.3352C125.131 75.3767 124.624 71.9614 125.279 68.6712C125.933 65.381 127.708 62.4195 130.301 60.2913C132.894 58.1632 136.145 57 139.5 57L139.5 71.5L149.753 61.2469Z" fill="#F65152"/>
<path d="M44.8314 39.294V39.918C44.8314 41.166 44.4197 42.1887 43.5964 42.986C42.773 43.7747 41.6984 44.169 40.3724 44.169C38.9684 44.169 37.807 43.714 36.8884 42.804C35.9784 41.894 35.5234 40.776 35.5234 39.45C35.5234 38.1327 35.9784 37.019 36.8884 36.109C37.807 35.1903 38.9424 34.731 40.2944 34.731C41.1437 34.731 41.9194 34.926 42.6214 35.316C43.3234 35.706 43.8694 36.2303 44.2594 36.889L42.9724 37.63C42.7297 37.1967 42.37 36.85 41.8934 36.59C41.4167 36.3213 40.8837 36.187 40.2944 36.187C39.341 36.187 38.5567 36.499 37.9414 37.123C37.326 37.747 37.0184 38.527 37.0184 39.463C37.0184 40.399 37.326 41.1747 37.9414 41.79C38.5654 42.4053 39.38 42.713 40.3854 42.713C41.1914 42.713 41.8457 42.5267 42.3484 42.154C42.8597 41.7727 43.1847 41.2657 43.3234 40.633H40.2814V39.294H44.8314ZM49.1751 44.169C48.2218 44.169 47.4114 43.8397 46.7441 43.181C46.0768 42.5223 45.7431 41.712 45.7431 40.75C45.7431 39.788 46.0768 38.9777 46.7441 38.319C47.4114 37.6603 48.2218 37.331 49.1751 37.331C50.1371 37.331 50.9474 37.6603 51.6061 38.319C52.2734 38.9777 52.6071 39.788 52.6071 40.75C52.6071 41.712 52.2734 42.5223 51.6061 43.181C50.9474 43.8397 50.1371 44.169 49.1751 44.169ZM47.7321 42.219C48.1221 42.609 48.6031 42.804 49.1751 42.804C49.7471 42.804 50.2281 42.609 50.6181 42.219C51.0081 41.829 51.2031 41.3393 51.2031 40.75C51.2031 40.1607 51.0081 39.671 50.6181 39.281C50.2281 38.891 49.7471 38.696 49.1751 38.696C48.6031 38.696 48.1221 38.891 47.7321 39.281C47.3421 39.671 47.1471 40.1607 47.1471 40.75C47.1471 41.3393 47.3421 41.829 47.7321 42.219ZM56.9446 44.169C55.9913 44.169 55.181 43.8397 54.5136 43.181C53.8463 42.5223 53.5126 41.712 53.5126 40.75C53.5126 39.788 53.8463 38.9777 54.5136 38.319C55.181 37.6603 55.9913 37.331 56.9446 37.331C57.9066 37.331 58.717 37.6603 59.3756 38.319C60.043 38.9777 60.3766 39.788 60.3766 40.75C60.3766 41.712 60.043 42.5223 59.3756 43.181C58.717 43.8397 57.9066 44.169 56.9446 44.169ZM55.5016 42.219C55.8916 42.609 56.3726 42.804 56.9446 42.804C57.5166 42.804 57.9976 42.609 58.3876 42.219C58.7776 41.829 58.9726 41.3393 58.9726 40.75C58.9726 40.1607 58.7776 39.671 58.3876 39.281C57.9976 38.891 57.5166 38.696 56.9446 38.696C56.3726 38.696 55.8916 38.891 55.5016 39.281C55.1116 39.671 54.9166 40.1607 54.9166 40.75C54.9166 41.3393 55.1116 41.829 55.5016 42.219ZM66.8201 37.5H68.1981V43.701C68.1981 44.689 67.8731 45.4473 67.2231 45.976C66.5731 46.5047 65.7845 46.769 64.8571 46.769C63.3578 46.769 62.3308 46.2447 61.7761 45.196L62.9851 44.494C63.3231 45.1613 63.9558 45.495 64.8831 45.495C65.4898 45.495 65.9621 45.3347 66.3001 45.014C66.6468 44.702 66.8201 44.2643 66.8201 43.701V42.908C66.2915 43.662 65.5375 44.039 64.5581 44.039C63.6395 44.039 62.8638 43.714 62.2311 43.064C61.5985 42.4053 61.2821 41.6123 61.2821 40.685C61.2821 39.7577 61.5985 38.969 62.2311 38.319C62.8638 37.6603 63.6395 37.331 64.5581 37.331C65.5375 37.331 66.2915 37.708 66.8201 38.462V37.5ZM63.2711 42.141C63.6698 42.531 64.1638 42.726 64.7531 42.726C65.3425 42.726 65.8321 42.531 66.2221 42.141C66.6208 41.751 66.8201 41.2657 66.8201 40.685C66.8201 40.1043 66.6208 39.619 66.2221 39.229C65.8321 38.839 65.3425 38.644 64.7531 38.644C64.1638 38.644 63.6698 38.839 63.2711 39.229C62.8811 39.619 62.6861 40.1043 62.6861 40.685C62.6861 41.2657 62.8811 41.751 63.2711 42.141ZM69.8346 44V34.51H71.2386V44H69.8346ZM73.9738 41.348C74.0778 41.842 74.3161 42.2233 74.6888 42.492C75.0615 42.752 75.5165 42.882 76.0538 42.882C76.7991 42.882 77.3581 42.6133 77.7308 42.076L78.8878 42.752C78.2465 43.6967 77.2975 44.169 76.0408 44.169C74.9835 44.169 74.1298 43.8483 73.4798 43.207C72.8298 42.557 72.5048 41.738 72.5048 40.75C72.5048 39.7793 72.8255 38.969 73.4668 38.319C74.1081 37.6603 74.9315 37.331 75.9368 37.331C76.8901 37.331 77.6701 37.6647 78.2768 38.332C78.8921 38.9993 79.1998 39.8097 79.1998 40.763C79.1998 40.9103 79.1825 41.1053 79.1478 41.348H73.9738ZM73.9608 40.204H77.7828C77.6875 39.6753 77.4665 39.2767 77.1198 39.008C76.7818 38.7393 76.3831 38.605 75.9238 38.605C75.4038 38.605 74.9705 38.748 74.6238 39.034C74.2771 39.32 74.0561 39.71 73.9608 40.204ZM89.7042 44L89.0672 42.167H85.1932L84.5562 44H82.9312L86.2332 34.9H88.0272L91.3162 44H89.7042ZM85.6872 40.763H88.5732L87.1302 36.655L85.6872 40.763ZM96.5086 37.5H97.9126V44H96.5086V43.168C96.0839 43.8353 95.4123 44.169 94.4936 44.169C93.7483 44.169 93.1459 43.9307 92.6866 43.454C92.2273 42.9773 91.9976 42.323 91.9976 41.491V37.5H93.4016V41.348C93.4016 41.8333 93.5316 42.206 93.7916 42.466C94.0516 42.726 94.4069 42.856 94.8576 42.856C95.3516 42.856 95.7503 42.7043 96.0536 42.401C96.3569 42.089 96.5086 41.6167 96.5086 40.984V37.5ZM103.181 38.852H101.569V41.972C101.569 42.2407 101.63 42.4357 101.751 42.557C101.873 42.6697 102.05 42.7347 102.284 42.752C102.527 42.7607 102.826 42.7563 103.181 42.739V44C102.107 44.13 101.335 44.039 100.867 43.727C100.399 43.4063 100.165 42.8213 100.165 41.972V38.852H98.9694V37.5H100.165V36.096L101.569 35.68V37.5H103.181V38.852ZM107.874 37.331C108.619 37.331 109.221 37.5693 109.681 38.046C110.14 38.5227 110.37 39.177 110.37 40.009V44H108.966V40.152C108.966 39.6667 108.836 39.294 108.576 39.034C108.316 38.774 107.96 38.644 107.51 38.644C107.016 38.644 106.617 38.8 106.314 39.112C106.01 39.4153 105.859 39.8833 105.859 40.516V44H104.455V34.9H105.859V38.332C106.283 37.6647 106.955 37.331 107.874 37.331ZM112.987 41.348C113.091 41.842 113.329 42.2233 113.702 42.492C114.074 42.752 114.529 42.882 115.067 42.882C115.812 42.882 116.371 42.6133 116.744 42.076L117.901 42.752C117.259 43.6967 116.31 44.169 115.054 44.169C113.996 44.169 113.143 43.8483 112.493 43.207C111.843 42.557 111.518 41.738 111.518 40.75C111.518 39.7793 111.838 38.969 112.48 38.319C113.121 37.6603 113.944 37.331 114.95 37.331C115.903 37.331 116.683 37.6647 117.29 38.332C117.905 38.9993 118.213 39.8097 118.213 40.763C118.213 40.9103 118.195 41.1053 118.161 41.348H112.987ZM112.973 40.204H116.796C116.7 39.6753 116.479 39.2767 116.133 39.008C115.795 38.7393 115.396 38.605 114.937 38.605C114.417 38.605 113.983 38.748 113.637 39.034C113.29 39.32 113.069 39.71 112.973 40.204ZM122.867 37.331C123.612 37.331 124.215 37.5693 124.674 38.046C125.133 38.5227 125.363 39.177 125.363 40.009V44H123.959V40.152C123.959 39.6667 123.829 39.294 123.569 39.034C123.309 38.774 122.954 38.644 122.503 38.644C122.009 38.644 121.61 38.8 121.307 39.112C121.004 39.4153 120.852 39.8833 120.852 40.516V44H119.448V37.5H120.852V38.332C121.277 37.6647 121.948 37.331 122.867 37.331ZM130.502 38.852H128.89V41.972C128.89 42.2407 128.95 42.4357 129.072 42.557C129.193 42.6697 129.371 42.7347 129.605 42.752C129.847 42.7607 130.146 42.7563 130.502 42.739V44C129.427 44.13 128.656 44.039 128.188 43.727C127.72 43.4063 127.486 42.8213 127.486 41.972V38.852H126.29V37.5H127.486V36.096L128.89 35.68V37.5H130.502V38.852ZM133.101 36.265C132.928 36.4383 132.72 36.525 132.477 36.525C132.234 36.525 132.022 36.4383 131.84 36.265C131.667 36.083 131.58 35.8707 131.58 35.628C131.58 35.3853 131.667 35.1773 131.84 35.004C132.013 34.822 132.226 34.731 132.477 34.731C132.728 34.731 132.941 34.822 133.114 35.004C133.287 35.1773 133.374 35.3853 133.374 35.628C133.374 35.8707 133.283 36.083 133.101 36.265ZM131.775 44V37.5H133.179V44H131.775ZM137.877 44.169C136.898 44.169 136.079 43.8397 135.42 43.181C134.77 42.5223 134.445 41.712 134.445 40.75C134.445 39.7793 134.77 38.969 135.42 38.319C136.079 37.6603 136.898 37.331 137.877 37.331C138.51 37.331 139.086 37.4827 139.606 37.786C140.126 38.0893 140.516 38.4967 140.776 39.008L139.567 39.71C139.42 39.398 139.195 39.1553 138.891 38.982C138.597 38.8 138.254 38.709 137.864 38.709C137.292 38.709 136.811 38.904 136.421 39.294C136.04 39.684 135.849 40.1693 135.849 40.75C135.849 41.3307 136.04 41.816 136.421 42.206C136.811 42.596 137.292 42.791 137.864 42.791C138.246 42.791 138.588 42.7 138.891 42.518C139.203 42.336 139.437 42.0933 139.593 41.79L140.802 42.479C140.525 42.999 140.126 43.4107 139.606 43.714C139.086 44.0173 138.51 44.169 137.877 44.169ZM146.863 37.5H148.267V44H146.863V43.064C146.335 43.8007 145.576 44.169 144.588 44.169C143.696 44.169 142.933 43.8397 142.3 43.181C141.668 42.5137 141.351 41.7033 141.351 40.75C141.351 39.788 141.668 38.9777 142.3 38.319C142.933 37.6603 143.696 37.331 144.588 37.331C145.576 37.331 146.335 37.695 146.863 38.423V37.5ZM143.34 42.245C143.73 42.635 144.22 42.83 144.809 42.83C145.399 42.83 145.888 42.635 146.278 42.245C146.668 41.8463 146.863 41.348 146.863 40.75C146.863 40.152 146.668 39.658 146.278 39.268C145.888 38.8693 145.399 38.67 144.809 38.67C144.22 38.67 143.73 38.8693 143.34 39.268C142.95 39.658 142.755 40.152 142.755 40.75C142.755 41.348 142.95 41.8463 143.34 42.245ZM153.531 38.852H151.919V41.972C151.919 42.2407 151.98 42.4357 152.101 42.557C152.222 42.6697 152.4 42.7347 152.634 42.752C152.877 42.7607 153.176 42.7563 153.531 42.739V44C152.456 44.13 151.685 44.039 151.217 43.727C150.749 43.4063 150.515 42.8213 150.515 41.972V38.852H149.319V37.5H150.515V36.096L151.919 35.68V37.5H153.531V38.852ZM157.606 44.169C156.652 44.169 155.842 43.8397 155.175 43.181C154.507 42.5223 154.174 41.712 154.174 40.75C154.174 39.788 154.507 38.9777 155.175 38.319C155.842 37.6603 156.652 37.331 157.606 37.331C158.568 37.331 159.378 37.6603 160.037 38.319C160.704 38.9777 161.038 39.788 161.038 40.75C161.038 41.712 160.704 42.5223 160.037 43.181C159.378 43.8397 158.568 44.169 157.606 44.169ZM156.163 42.219C156.553 42.609 157.034 42.804 157.606 42.804C158.178 42.804 158.659 42.609 159.049 42.219C159.439 41.829 159.634 41.3393 159.634 40.75C159.634 40.1607 159.439 39.671 159.049 39.281C158.659 38.891 158.178 38.696 157.606 38.696C157.034 38.696 156.553 38.891 156.163 39.281C155.773 39.671 155.578 40.1607 155.578 40.75C155.578 41.3393 155.773 41.829 156.163 42.219ZM163.711 38.592C164.067 37.786 164.734 37.383 165.713 37.383V38.904C165.176 38.8693 164.708 38.9993 164.309 39.294C163.911 39.58 163.711 40.0567 163.711 40.724V44H162.307V37.5H163.711V38.592Z" fill="white"/>
<rect x="62" y="160" width="78" height="24" rx="6" fill="white" fill-opacity="0.1"/>
<path d="M78.6568 176H76.9538L74.9518 172.711L72.9498 176H71.2468L74.1068 171.32L71.4158 166.9H73.1058L74.9518 169.929L76.7978 166.9H78.5008L75.8098 171.32L78.6568 176ZM86.4517 176H84.7487L82.7467 172.711L80.7447 176H79.0417L81.9017 171.32L79.2107 166.9H80.9007L82.7467 169.929L84.5927 166.9H86.2957L83.6047 171.32L86.4517 176ZM94.2466 176H92.5436L90.5416 172.711L88.5396 176H86.8366L89.6966 171.32L87.0056 166.9H88.6956L90.5416 169.929L92.3876 166.9H94.0906L91.3996 171.32L94.2466 176ZM98.5965 172.724V171.372H103.407V172.724H98.5965ZM115.168 176H113.465L111.463 172.711L109.461 176H107.758L110.618 171.32L107.927 166.9H109.617L111.463 169.929L113.309 166.9H115.012L112.321 171.32L115.168 176ZM122.963 176H121.26L119.258 172.711L117.256 176H115.553L118.413 171.32L115.722 166.9H117.412L119.258 169.929L121.104 166.9H122.807L120.116 171.32L122.963 176ZM130.758 176H129.055L127.053 172.711L125.051 176H123.348L126.208 171.32L123.517 166.9H125.207L127.053 169.929L128.899 166.9H130.602L127.911 171.32L130.758 176Z" fill="white"/>
</g>
<rect y="127" width="202" height="70" fill="url(#paint0_linear_4399_3088)"/>
<defs>
<linearGradient id="paint0_linear_4399_3088" x1="101" y1="127" x2="101" y2="197" gradientUnits="userSpaceOnUse">
<stop stop-color="#2D2D2D" stop-opacity="0"/>
<stop offset="1" stop-color="#2D2D2D"/>
</linearGradient>
<clipPath id="clip0_4399_3088">
<rect width="202" height="197" fill="white"/>
</clipPath>
<clipPath id="clip1_4399_3088">
<rect width="76" height="76" fill="white" transform="translate(63 72)"/>
</clipPath>
</defs>
</svg>
