<svg width="30" height="30" viewBox="0 0 30 30" fill="none" xmlns="http://www.w3.org/2000/svg">
<g clip-path="url(#clip0_4118_2817)">
<path d="M2.12305 26.25H27.123" stroke="#F65152" stroke-width="2" stroke-linecap="round" stroke-linejoin="round"/>
<path d="M8.37305 16.25H5.87305C5.18269 16.25 4.62305 16.8096 4.62305 17.5V25C4.62305 25.6904 5.18269 26.25 5.87305 26.25H8.37305C9.0634 26.25 9.62305 25.6904 9.62305 25V17.5C9.62305 16.8096 9.0634 16.25 8.37305 16.25Z" stroke="#F65152" stroke-width="2" stroke-linecap="round" stroke-linejoin="round"/>
<path d="M7.12305 21.25H7.22305" stroke="#F65152" stroke-width="2" stroke-linecap="round" stroke-linejoin="round"/>
<path d="M23.373 2.5H10.873C10.1827 2.5 9.62305 3.05964 9.62305 3.75V25C9.62305 25.6904 10.1827 26.25 10.873 26.25H23.373C24.0634 26.25 24.623 25.6904 24.623 25V3.75C24.623 3.05964 24.0634 2.5 23.373 2.5Z" stroke="#F65152" stroke-width="2" stroke-linecap="round" stroke-linejoin="round"/>
<path d="M13.373 7.5C13.373 6.80964 13.9327 6.25 14.623 6.25V6.25C15.3134 6.25 15.873 6.80964 15.873 7.5V7.5C15.873 8.19036 15.3134 8.75 14.623 8.75V8.75C13.9327 8.75 13.373 8.19036 13.373 7.5V7.5Z" fill="#F65152"/>
<path d="M13.373 11.875C13.373 11.1846 13.9327 10.625 14.623 10.625V10.625C15.3134 10.625 15.873 11.1846 15.873 11.875V11.875C15.873 12.5654 15.3134 13.125 14.623 13.125V13.125C13.9327 13.125 13.373 12.5654 13.373 11.875V11.875Z" fill="#F65152"/>
<path d="M18.373 11.875C18.373 11.1846 18.9327 10.625 19.623 10.625V10.625C20.3134 10.625 20.873 11.1846 20.873 11.875V11.875C20.873 12.5654 20.3134 13.125 19.623 13.125V13.125C18.9327 13.125 18.373 12.5654 18.373 11.875V11.875Z" fill="#F65152"/>
<path d="M18.373 16.25C18.373 15.5596 18.9327 15 19.623 15V15C20.3134 15 20.873 15.5596 20.873 16.25V16.25C20.873 16.9404 20.3134 17.5 19.623 17.5V17.5C18.9327 17.5 18.373 16.9404 18.373 16.25V16.25Z" fill="#F65152"/>
<path d="M18.373 7.5C18.373 6.80964 18.9327 6.25 19.623 6.25V6.25C20.3134 6.25 20.873 6.80964 20.873 7.5V7.5C20.873 8.19036 20.3134 8.75 19.623 8.75V8.75C18.9327 8.75 18.373 8.19036 18.373 7.5V7.5Z" fill="#F65152"/>
<path d="M18.373 20.625C18.373 19.9346 18.9327 19.375 19.623 19.375V19.375C20.3134 19.375 20.873 19.9346 20.873 20.625V20.625C20.873 21.3154 20.3134 21.875 19.623 21.875V21.875C18.9327 21.875 18.373 21.3154 18.373 20.625V20.625Z" fill="#F65152"/>
</g>
<defs>
<clipPath id="clip0_4118_2817">
<rect width="30" height="30" fill="white"/>
</clipPath>
</defs>
</svg>
